PathFileType	4	(X/Y/Z)	8_2_31_p1_0-210_filt_butterworth.trc
DataRate	CameraRate	NumFrames	NumMarkers	Units	OrigDataRate	OrigDataStartFrame	OrigNumFrames
60.0	60.0	4	27	m	60.0	0	210
Frame#	Time	RHip			RKnee			RAnkle			RBigToe			RSmallToe			RHeel			LHip			LKnee			LAnkle			LBigToe			LSmallToe			LHeel			Neck			Head			Nose			RShoulder			RElbow			RWrist			RThumb			RIndex			RPinky			LShoulder			LElbow			LWrist			LThumb			LIndex			LPinky			
		X1	Y1	Z1	X2	Y2	Z2	X3	Y3	Z3	X4	Y4	Z4	X5	Y5	Z5	X6	Y6	Z6	X7	Y7	Z7	X8	Y8	Z8	X9	Y9	Z9	X10	Y10	Z10	X11	Y11	Z11	X12	Y12	Z12	X13	Y13	Z13	X14	Y14	Z14	X15	Y15	Z15	X16	Y16	Z16	X17	Y17	Z17	X18	Y18	Z18	X19	Y19	Z19	X20	Y20	Z20	X21	Y21	Z21	X22	Y22	Z22	X23	Y23	Z23	X24	Y24	Z24	X25	Y25	Z25	X26	Y26	Z26	X27	Y27	Z27	
0	0.0	0.26825259777731164	0.8352062527536659	0.7457003903318611	0.27766650693330464	0.33592669482052007	0.7946197231968124	0.24451910251676656	-0.10810987424037267	0.9197700254115005	0.21399138292388442	-0.1281568603491066	0.6933147300987251	0.27552177782064935	-0.15755086462568146	0.771593180716073	0.21906641883989927	-0.1521221178142863	0.9564579250114567	0.05696974490698936	0.8298513693483343	0.7641732042878471	0.04551300180863641	0.3666331678686884	0.7861501561052966	0.04315815083138087	-0.061238433188845115	0.8418923051623629	0.05614250920088775	-0.12647938937116404	0.7049970794007001	-0.0018222823729522918	-0.10683274991269454	0.7315144256317296	0.06492642584462395	-0.14622298794395155	0.9499390166379788	0.19848303229206746	1.452626773392516	0.7143031752215008	0.20654859364724423	1.69330075689293	0.6734489533088883	0.18813033838829962	1.5651005726865048	0.6164075216055109	0.36005821954098793	1.305218512953799	0.7456258660877336	0.3650686844281486	1.0148521086404334	0.7351607384126131	0.2669260376225707	0.8139331309473488	0.5910562466326477	0.20635585088023128	0.7381503560874706	0.5137118936405746	0.19374102605129231	0.7067694607000948	0.5365236288179354	0.18057846829619628	0.7029803170938245	0.576051455902139	0.03445796708768758	1.3374972703682004	0.7642477285319746	0.02538348753152214	1.0500939605166513	0.7184876287622219	0.11489715534373189	0.8212089290521019	0.6015714026360857	0.21737962609459077	0.7808164810434494	0.5111909068111686	0.2067487433719672	0.747301336909036	0.5021330828543508	0.14714938946380776	0.6864826591477917	0.575209793111652	
1	0.0166666666666666	0.268457849945977	0.8333287109440932	0.7488436330423855	0.27812041129983645	0.33583178815631387	0.7934146276879588	0.24440803256437887	-0.10834357244417908	0.9209200046324851	0.2144311300724137	-0.12523589571028185	0.6929247859312369	0.2733359116257966	-0.1534386537300395	0.7654455471104308	0.219055563694661	-0.151256957590508	0.9570237653904492	0.05572503218507425	0.828729933782399	0.7651095857125079	0.04634545895174383	0.36597232459628154	0.7873833593809964	0.04338953105161635	-0.060295034322263755	0.8444220601593492	0.0584887285726685	-0.12660962598767572	0.7048847795738176	-0.0020739736695275	-0.10393692554863831	0.7305371442839969	0.06500630025174231	-0.1454095321486348	0.9502517379304142	0.1959886420265987	1.451919122715715	0.7225880503886425	0.20657154944528955	1.6933600899412726	0.6734950034874376	0.18867398064460603	1.564645500166453	0.615809651217264	0.35953276063089507	1.3048761749480755	0.7439080568676586	0.3640980669877073	1.0158820475599768	0.7334004218099985	0.26814290111326655	0.8143184414072993	0.5913888542063135	0.2001937163917491	0.7323030619620219	0.5267403820503679	0.18757336736195054	0.7008829199104696	0.5495739658959559	0.18016893751331794	0.6970878750675422	0.5815285581766252	0.0344541150222418	1.339076424323125	0.763752007695695	0.025511094362902574	1.0500842159485333	0.718317588497577	0.11495476919863397	0.8210796403336119	0.6018277873781968	0.21599974818299764	0.7786955276574629	0.5139782477015312	0.20656141385607202	0.7438361542183803	0.5045158681612113	0.14630948964196516	0.6864893142592774	0.574471669458567	
2	0.0333333333333333	0.26867402459183926	0.8318707293180633	0.7513613288019638	0.2784829150320798	0.33584296853973467	0.7924699124182026	0.24426295472907492	-0.10861022418929768	0.921934157703011	0.21472388071790102	-0.12339987062886297	0.692730405520212	0.2719646641601915	-0.15084228316001902	0.7615701575715632	0.21901599563544802	-0.15060081080568558	0.9574826268176649	0.05500608472960651	0.8280487426120282	0.7660615694286715	0.04711482120983964	0.36544921612454506	0.7884783948079683	0.04354839449842739	-0.059731245789313964	0.8467903026939051	0.05996380792269015	-0.12660294187530519	0.7049293678053601	-0.0022450175462497175	-0.10209335395330153	0.7299498160275266	0.06495496410214395	-0.14504688793415715	0.95078855786257	0.19460411725300786	1.4515285779152647	0.7272112440029129	0.20659292599104886	1.6933896644908302	0.6735084691418596	0.18879949633495482	1.5641636484896495	0.6154445769234629	0.3593941515766151	1.3047669567327125	0.743364091346961	0.363854304710513	1.0163354320992979	0.7326248383301042	0.26925598757293645	0.8141949553490185	0.5917308446776773	0.1978131699112712	0.7301870326452878	0.532091813257832	0.18501784962685575	0.6981843816432756	0.5555037494891696	0.180256953937329	0.6949919579329346	0.5839006337341044	0.034454279605628656	1.340300960956227	0.7634418944188903	0.025580219031855107	1.0501239156163056	0.7181845315836364	0.11600492362453466	0.8213701756446748	0.6007735417430987	0.21561638729685828	0.7781740508066938	0.5152384402274183	0.2071489199183478	0.7420263662322976	0.5056830241167934	0.14624018020615703	0.6864375005872871	0.57428549046115	
3	0.05	0.26891067775750405	0.8308246268729996	0.7532702828480511	0.27876121308860374	0.3359518202582411	0.7917658869139684	0.24408989214405002	-0.10890189255879322	0.9228194576356565	0.21489553516204757	-0.12243732940758748	0.692683400970759	0.2712483747380864	-0.14946605486706468	0.7595231580767267	0.21895488554174594	-0.15013230203890762	0.9578432894353722	0.05476240494596594	0.8277860313109189	0.7669848341651333	0.04781937970448717	0.36504929661129804	0.7894400576519511	0.04364208792884442	-0.059505596260867766	0.8489881581170352	0.0607379281787222	-0.12651942058753676	0.705074574140489	-0.002349096308771506	-0.10109934700497733	0.7296718782400187	0.06479142344555221	-0.14507965967617387	0.9515103825092406	0.19412300082598408	1.4513960763152831	0.7288531001480248	0.2066135700338903	1.6933985700176077	0.6734973577401444	0.1885898448225742	1.563677658563737	0.6152344917984527	0.3595739535808096	1.3048497749635062	0.7437859379673328	0.36414759912158734	1.016333557639488	0.7326051879959483	0.2702868221132797	0.813677066277784	0.5920660996713762	0.1983403900565151	0.7309641014680225	0.5314450190207289	0.18529432358721565	0.6979394121977324	0.5556915148621504	0.18082978893975235	0.6957420470643645	0.5835828911938328	0.03445866587821865	1.3411378312324602	0.763283784600395	0.025606319225293564	1.0501916977696801	0.7180885452621606	0.11764902363258709	0.8220315175001017	0.5985521653074866	0.21595979664031295	0.7788560382366643	0.5151925371903603	0.20824858488778095	0.7415442687736966	0.5057713384298708	0.14672444638373003	0.6864020183738625	0.5744791655483087	
